<?xml version="1.0" encoding="UTF-8"?>
<svg width="193px" height="22px" viewBox="0 0 193 22" version="1.1" xmlns="http://www.w3.org/2000/svg" xmlns:xlink="http://www.w3.org/1999/xlink">
    <!-- Generator: Sketch 46.2 (44496) - http://www.bohemiancoding.com/sketch -->
    <title>Group</title>
    <desc>Created with Sketch.</desc>
    <defs>
        <linearGradient x1="0%" y1="0%" x2="100%" y2="80.9618582%" id="linearGradient-1">
            <stop stop-color="#F16434" offset="0%"></stop>
            <stop stop-color="#ED3635" offset="100%"></stop>
        </linearGradient>
    </defs>
    <g id="Page-1" stroke="none" stroke-width="1" fill="none" fill-rule="evenodd">
        <g id="3" transform="translate(-33.000000, -49.000000)">
            <g id="Group" transform="translate(34.000000, 49.000000)">
                <g>
                    <path d="M27.8964844,12.9238281 C27.8964844,13.9785209 27.5123736,14.7874321 26.7441406,15.3505859 C25.9759076,15.9137398 24.8756582,16.1953125 23.4433594,16.1953125 C22.0045501,16.1953125 20.8489627,15.9772157 19.9765625,15.5410156 L19.9765625,13.5585938 C21.2461001,14.1445342 22.4277289,14.4375 23.5214844,14.4375 C24.9342519,14.4375 25.640625,14.011072 25.640625,13.1582031 C25.640625,12.8847643 25.5625008,12.656902 25.40625,12.4746094 C25.2499992,12.2923168 24.9928403,12.1035166 24.6347656,11.9082031 C24.2766909,11.7128896 23.778649,11.4915377 23.140625,11.2441406 C21.8971292,10.7623674 21.0556663,10.2806014 20.6162109,9.79882812 C20.1767556,9.31705488 19.9570312,8.69206113 19.9570312,7.92382812 C19.9570312,6.99934434 20.3297489,6.28157808 21.0751953,5.77050781 C21.8206417,5.25943755 22.834629,5.00390625 24.1171875,5.00390625 C25.3867251,5.00390625 26.587885,5.26106514 27.7207031,5.77539062 L26.9785156,7.50390625 C25.8131452,7.02213301 24.8333373,6.78125 24.0390625,6.78125 C22.8281189,6.78125 22.2226562,7.12629863 22.2226562,7.81640625 C22.2226562,8.15494961 22.3805323,8.44140508 22.6962891,8.67578125 C23.0120458,8.91015742 23.7005155,9.23241982 24.7617188,9.64257812 C25.6536503,9.98763193 26.3014303,10.303384 26.7050781,10.5898438 C27.108726,10.8763035 27.4082021,11.2067039 27.6035156,11.5810547 C27.7988291,11.9554055 27.8964844,12.4029922 27.8964844,12.9238281 Z M39.8789062,16 L37.5742188,16 L37.5742188,9.359375 C37.5742188,8.5260375 37.4065772,7.90429893 37.0712891,7.49414062 C36.7360009,7.08398232 36.2037797,6.87890625 35.4746094,6.87890625 C34.5110629,6.87890625 33.8030622,7.16698931 33.3505859,7.74316406 C32.8981097,8.31933882 32.671875,9.28449844 32.671875,10.6386719 L32.671875,16 L30.3769531,16 L30.3769531,0.8046875 L32.671875,0.8046875 L32.671875,4.66210938 C32.671875,5.28060205 32.6328129,5.94140273 32.5546875,6.64453125 L32.7011719,6.64453125 C33.0136734,6.12369531 33.4482394,5.72005352 34.0048828,5.43359375 C34.5615262,5.14713398 35.2109338,5.00390625 35.953125,5.00390625 C38.5703256,5.00390625 39.8789062,6.32225244 39.8789062,8.95898438 L39.8789062,16 Z M52.6523438,10.5800781 C52.6523438,12.3444099 52.1998743,13.7213492 51.2949219,14.7109375 C50.3899694,15.7005258 49.1302164,16.1953125 47.515625,16.1953125 C46.5065054,16.1953125 45.6145872,15.9674502 44.8398438,15.5117188 C44.0651003,15.0559873 43.4694031,14.401697 43.0527344,13.5488281 C42.6360656,12.6959593 42.4277344,11.7063858 42.4277344,10.5800781 C42.4277344,8.82876729 42.8769486,7.46159346 43.7753906,6.47851562 C44.6738326,5.49543779 45.940096,5.00390625 47.5742188,5.00390625 C49.1367266,5.00390625 50.3736934,5.50683091 51.2851562,6.51269531 C52.1966191,7.51855972 52.6523438,8.87434043 52.6523438,10.5800781 Z M44.7910156,10.5800781 C44.7910156,13.0735802 45.7122304,14.3203125 47.5546875,14.3203125 C49.3776133,14.3203125 50.2890625,13.0735802 50.2890625,10.5800781 C50.2890625,8.11261787 49.3711029,6.87890625 47.5351562,6.87890625 C46.5716098,6.87890625 45.8733746,7.19791348 45.4404297,7.8359375 C45.0074848,8.47396152 44.7910156,9.38866592 44.7910156,10.5800781 Z M60.7675781,5.00390625 C61.22982,5.00390625 61.6106756,5.03645801 61.9101562,5.1015625 L61.6855469,7.24023438 C61.3600244,7.16210898 61.0214861,7.12304688 60.6699219,7.12304688 C59.7519485,7.12304688 59.0081409,7.42252305 58.4384766,8.02148438 C57.8688123,8.6204457 57.5839844,9.39843271 57.5839844,10.3554688 L57.5839844,16 L55.2890625,16 L55.2890625,5.19921875 L57.0859375,5.19921875 L57.3886719,7.10351562 L57.5058594,7.10351562 C57.8639341,6.45898115 58.3310518,5.94791855 58.9072266,5.5703125 C59.4834013,5.19270645 60.1035123,5.00390625 60.7675781,5.00390625 Z M67.9355469,14.3398438 C68.4954455,14.3398438 69.0553357,14.251954 69.6152344,14.0761719 L69.6152344,15.8046875 C69.3613269,15.9153651 69.0341817,16.0081376 68.6337891,16.0830078 C68.2333964,16.157878 67.8183615,16.1953125 67.3886719,16.1953125 C65.2141818,16.1953125 64.1269531,15.0494906 64.1269531,12.7578125 L64.1269531,6.9375 L62.6523438,6.9375 L62.6523438,5.921875 L64.234375,5.08203125 L65.015625,2.796875 L66.4316406,2.796875 L66.4316406,5.19921875 L69.5078125,5.19921875 L69.5078125,6.9375 L66.4316406,6.9375 L66.4316406,12.71875 C66.4316406,13.2721382 66.5699856,13.6806627 66.8466797,13.9443359 C67.1233738,14.2080091 67.4863259,14.3398438 67.9355469,14.3398438 Z M76.4902344,16.1953125 C74.8105385,16.1953125 73.497075,15.7054085 72.5498047,14.7255859 C71.6025343,13.7457633 71.1289062,12.396493 71.1289062,10.6777344 C71.1289062,8.91340264 71.568355,7.52669775 72.4472656,6.51757812 C73.3261763,5.5084585 74.5338465,5.00390625 76.0703125,5.00390625 C77.4961009,5.00390625 78.6223917,5.43684463 79.4492188,6.30273438 C80.2760458,7.16862412 80.6894531,8.36001846 80.6894531,9.87695312 L80.6894531,11.1171875 L73.4921875,11.1171875 C73.5247397,12.1653698 73.80794,12.9710258 74.3417969,13.5341797 C74.8756537,14.0973335 75.6275993,14.3789062 76.5976562,14.3789062 C77.2356803,14.3789062 77.8297499,14.3186855 78.3798828,14.1982422 C78.9300158,14.0777989 79.5208302,13.8776056 80.1523438,13.5976562 L80.1523438,15.4628906 C79.5924451,15.729819 79.0260445,15.9186192 78.453125,16.0292969 C77.8802055,16.1399745 77.2259151,16.1953125 76.4902344,16.1953125 Z M76.0703125,6.7421875 C75.3411422,6.7421875 74.7568381,6.97330498 74.3173828,7.43554688 C73.8779275,7.89778877 73.6158858,8.57161016 73.53125,9.45703125 L78.4335938,9.45703125 C78.4205729,8.56509971 78.2057312,7.88965073 77.7890625,7.43066406 C77.3723938,6.97167739 76.7994828,6.7421875 76.0703125,6.7421875 Z M92.7988281,16 L90.4941406,16 L90.4941406,9.359375 C90.4941406,8.5260375 90.3264991,7.90429893 89.9912109,7.49414062 C89.6559228,7.08398232 89.1237016,6.87890625 88.3945312,6.87890625 C87.4244743,6.87890625 86.714846,7.16536172 86.265625,7.73828125 C85.816404,8.31120078 85.5917969,9.27147764 85.5917969,10.6191406 L85.5917969,16 L83.296875,16 L83.296875,5.19921875 L85.09375,5.19921875 L85.4160156,6.61523438 L85.5332031,6.61523438 C85.8587256,6.10090889 86.3209605,5.70377744 86.9199219,5.42382812 C87.5188832,5.14387881 88.1829391,5.00390625 88.9121094,5.00390625 C91.5032682,5.00390625 92.7988281,6.32225244 92.7988281,8.95898438 L92.7988281,16 Z M100.347656,16.1953125 C98.7135335,16.1953125 97.4716839,15.7184292 96.6220703,14.7646484 C95.7724567,13.8108676 95.3476562,12.4420662 95.3476562,10.6582031 C95.3476562,8.84178779 95.7919877,7.44531738 96.6806641,6.46875 C97.5693404,5.49218262 98.8535072,5.00390625 100.533203,5.00390625 C101.672532,5.00390625 102.697912,5.21549268 103.609375,5.63867188 L102.916016,7.484375 C101.945959,7.10676895 101.145185,6.91796875 100.513672,6.91796875 C98.6451729,6.91796875 97.7109375,8.15819072 97.7109375,10.6386719 C97.7109375,11.8496154 97.9436826,12.7594371 98.4091797,13.3681641 C98.8746768,13.9768911 99.5566361,14.28125 100.455078,14.28125 C101.477219,14.28125 102.444006,14.0273463 103.355469,13.5195312 L103.355469,15.5214844 C102.94531,15.762371 102.507489,15.9348953 102.041992,16.0390625 C101.576495,16.1432297 101.011722,16.1953125 100.347656,16.1953125 Z M111.373047,5.00390625 C111.835289,5.00390625 112.216144,5.03645801 112.515625,5.1015625 L112.291016,7.24023438 C111.965493,7.16210898 111.626955,7.12304688 111.275391,7.12304688 C110.357417,7.12304688 109.61361,7.42252305 109.043945,8.02148438 C108.474281,8.6204457 108.189453,9.39843271 108.189453,10.3554688 L108.189453,16 L105.894531,16 L105.894531,5.19921875 L107.691406,5.19921875 L107.994141,7.10351562 L108.111328,7.10351562 C108.469403,6.45898115 108.936521,5.94791855 109.512695,5.5703125 C110.08887,5.19270645 110.708981,5.00390625 111.373047,5.00390625 Z M121.275391,16 L120.816406,14.4960938 L120.738281,14.4960938 C120.217445,15.1536491 119.693362,15.6012358 119.166016,15.8388672 C118.638669,16.0764986 117.961593,16.1953125 117.134766,16.1953125 C116.073562,16.1953125 115.24512,15.908857 114.649414,15.3359375 C114.053708,14.763018 113.755859,13.9524792 113.755859,12.9042969 C113.755859,11.7910101 114.169267,10.9511747 114.996094,10.3847656 C115.822921,9.81835654 117.082674,9.50911484 118.775391,9.45703125 L120.640625,9.3984375 L120.640625,8.82226562 C120.640625,8.13215801 120.479494,7.61621265 120.157227,7.27441406 C119.834959,6.93261548 119.33529,6.76171875 118.658203,6.76171875 C118.104815,6.76171875 117.574221,6.84309814 117.066406,7.00585938 C116.558591,7.16862061 116.070315,7.36067598 115.601562,7.58203125 L114.859375,5.94140625 C115.445315,5.63541514 116.086585,5.40267007 116.783203,5.24316406 C117.479821,5.08365806 118.137367,5.00390625 118.755859,5.00390625 C120.129564,5.00390625 121.166338,5.30338242 121.866211,5.90234375 C122.566084,6.50130508 122.916016,7.44205088 122.916016,8.72460938 L122.916016,16 L121.275391,16 Z M117.857422,14.4375 C118.690759,14.4375 119.359698,14.2047549 119.864258,13.7392578 C120.368818,13.2737607 120.621094,12.6210979 120.621094,11.78125 L120.621094,10.84375 L119.234375,10.9023438 C118.15364,10.9414064 117.367515,11.1220687 116.875977,11.4443359 C116.384438,11.7666032 116.138672,12.2597623 116.138672,12.9238281 C116.138672,13.4056014 116.2819,13.778319 116.568359,14.0419922 C116.854819,14.3056654 117.284502,14.4375 117.857422,14.4375 Z M131.539062,6.9375 L128.902344,6.9375 L128.902344,16 L126.597656,16 L126.597656,6.9375 L124.820312,6.9375 L124.820312,5.86328125 L126.597656,5.16015625 L126.597656,4.45703125 C126.597656,3.1809832 126.897132,2.23535464 127.496094,1.62011719 C128.095055,1.00487974 129.009759,0.697265625 130.240234,0.697265625 C131.04753,0.697265625 131.841793,0.830727832 132.623047,1.09765625 L132.017578,2.8359375 C131.451169,2.65364492 130.91081,2.5625 130.396484,2.5625 C129.875648,2.5625 129.49642,2.7236312 129.258789,3.04589844 C129.021158,3.36816567 128.902344,3.85155928 128.902344,4.49609375 L128.902344,5.19921875 L131.539062,5.19921875 L131.539062,6.9375 Z M137.398438,14.3398438 C137.958336,14.3398438 138.518226,14.251954 139.078125,14.0761719 L139.078125,15.8046875 C138.824217,15.9153651 138.497072,16.0081376 138.09668,16.0830078 C137.696287,16.157878 137.281252,16.1953125 136.851562,16.1953125 C134.677072,16.1953125 133.589844,15.0494906 133.589844,12.7578125 L133.589844,6.9375 L132.115234,6.9375 L132.115234,5.921875 L133.697266,5.08203125 L134.478516,2.796875 L135.894531,2.796875 L135.894531,5.19921875 L138.970703,5.19921875 L138.970703,6.9375 L135.894531,6.9375 L135.894531,12.71875 C135.894531,13.2721382 136.032876,13.6806627 136.30957,13.9443359 C136.586264,14.2080091 136.949217,14.3398438 137.398438,14.3398438 Z M148.492188,12.9238281 C148.492188,13.9785209 148.108077,14.7874321 147.339844,15.3505859 C146.571611,15.9137398 145.471361,16.1953125 144.039062,16.1953125 C142.600253,16.1953125 141.444666,15.9772157 140.572266,15.5410156 L140.572266,13.5585938 C141.841803,14.1445342 143.023432,14.4375 144.117188,14.4375 C145.529955,14.4375 146.236328,14.011072 146.236328,13.1582031 C146.236328,12.8847643 146.158204,12.656902 146.001953,12.4746094 C145.845702,12.2923168 145.588543,12.1035166 145.230469,11.9082031 C144.872394,11.7128896 144.374352,11.4915377 143.736328,11.2441406 C142.492832,10.7623674 141.651369,10.2806014 141.211914,9.79882812 C140.772459,9.31705488 140.552734,8.69206113 140.552734,7.92382812 C140.552734,6.99934434 140.925452,6.28157808 141.670898,5.77050781 C142.416345,5.25943755 143.430332,5.00390625 144.712891,5.00390625 C145.982428,5.00390625 147.183588,5.26106514 148.316406,5.77539062 L147.574219,7.50390625 C146.408848,7.02213301 145.42904,6.78125 144.634766,6.78125 C143.423822,6.78125 142.818359,7.12629863 142.818359,7.81640625 C142.818359,8.15494961 142.976235,8.44140508 143.291992,8.67578125 C143.607749,8.91015742 144.296219,9.23241982 145.357422,9.64257812 C146.249353,9.98763193 146.897133,10.303384 147.300781,10.5898438 C147.704429,10.8763035 148.003905,11.2067039 148.199219,11.5810547 C148.394532,11.9554055 148.492188,12.4029922 148.492188,12.9238281 Z M150.630859,14.7792969 C150.630859,14.3040341 150.754556,13.9394544 151.001953,13.6855469 C151.24935,13.4316394 151.60742,13.3046875 152.076172,13.3046875 C152.551435,13.3046875 152.912759,13.4365221 153.160156,13.7001953 C153.407553,13.9638685 153.53125,14.3235654 153.53125,14.7792969 C153.53125,15.2415388 153.405926,15.607746 153.155273,15.8779297 C152.904621,16.1481133 152.544924,16.2832031 152.076172,16.2832031 C151.60742,16.2832031 151.24935,16.1497409 151.001953,15.8828125 C150.754556,15.6158841 150.630859,15.2480492 150.630859,14.7792969 Z M158.765625,16 L156.470703,16 L156.470703,5.19921875 L158.765625,5.19921875 L158.765625,16 Z M156.333984,2.33789062 C156.333984,1.92773232 156.446288,1.61198027 156.670898,1.390625 C156.895509,1.16926973 157.216144,1.05859375 157.632812,1.05859375 C158.03646,1.05859375 158.350585,1.16926973 158.575195,1.390625 C158.799806,1.61198027 158.912109,1.92773232 158.912109,2.33789062 C158.912109,2.72851758 158.799806,3.03613169 158.575195,3.26074219 C158.350585,3.48535269 158.03646,3.59765625 157.632812,3.59765625 C157.216144,3.59765625 156.895509,3.48535269 156.670898,3.26074219 C156.446288,3.03613169 156.333984,2.72851758 156.333984,2.33789062 Z M171.626953,10.5800781 C171.626953,12.3444099 171.174484,13.7213492 170.269531,14.7109375 C169.364579,15.7005258 168.104826,16.1953125 166.490234,16.1953125 C165.481115,16.1953125 164.589197,15.9674502 163.814453,15.5117188 C163.03971,15.0559873 162.444012,14.401697 162.027344,13.5488281 C161.610675,12.6959593 161.402344,11.7063858 161.402344,10.5800781 C161.402344,8.82876729 161.851558,7.46159346 162.75,6.47851562 C163.648442,5.49543779 164.914705,5.00390625 166.548828,5.00390625 C168.111336,5.00390625 169.348303,5.50683091 170.259766,6.51269531 C171.171229,7.51855972 171.626953,8.87434043 171.626953,10.5800781 Z M163.765625,10.5800781 C163.765625,13.0735802 164.68684,14.3203125 166.529297,14.3203125 C168.352223,14.3203125 169.263672,13.0735802 169.263672,10.5800781 C169.263672,8.11261787 168.345712,6.87890625 166.509766,6.87890625 C165.546219,6.87890625 164.847984,7.19791348 164.415039,7.8359375 C163.982094,8.47396152 163.765625,9.38866592 163.765625,10.5800781 Z" id="shortencrafts.io" fill="url(#linearGradient-1)"></path>
                    <polyline id="Path-2" stroke="url(#linearGradient-1)" points="0 1 10 11 0 21"></polyline>
                    <polyline id="Path-2" stroke="url(#linearGradient-1)" transform="translate(186.000000, 11.000000) scale(-1, 1) translate(-186.000000, -11.000000) " points="181 1 191 11 181 21"></polyline>
                </g>
            </g>
        </g>
    </g>
</svg>